<?xml version="1.0" encoding="UTF-8"?>
 <svg xmlns="http://www.w3.org/2000/svg" width="1024" height="492"
    viewBox="0 0 100 48" fill="none">
    <path
        d="M50.0006 48C36.7994 48 24.3676 45.592 15.0001 41.2187C5.32647 36.7065 0 30.5898 0 24.0006C0 17.4115 5.32522 11.2948 15.0001 6.78133C24.3701 2.408 36.8006 0 50.0006 0C63.2006 0 75.6312 2.408 84.9999 6.78133C94.6735 11.2948 100 17.4115 100 24.0006C100 30.5898 94.6748 36.7065 84.9999 41.2187C75.6324 45.592 63.2019 48 50.0006 48ZM28.4724 25.2567C29.1444 36.6184 38.5607 45.4878 50.0006 45.4878C61.4406 45.4878 70.8556 36.6184 71.5276 25.2567H55.2884L50.1306 37.6488L44.9739 25.2567H28.4724ZM74.1446 25.2567C73.7536 32.6977 69.8937 39.515 63.724 43.7469C75.8547 40.5379 84.0618 33.3772 84.8263 25.2567H74.1446ZM15.1724 25.2567C15.9394 33.3772 24.1465 40.5392 36.2772 43.7469C30.1076 39.515 26.2476 32.6977 25.8566 25.2567H15.1724ZM87.3634 25.2567C86.8137 32.0678 81.847 38.3073 73.62 42.6C77.3925 41.6055 80.8489 40.3792 83.9206 38.9458C91.9491 35.1999 96.7197 30.3467 97.3867 25.2567H87.3634ZM2.61077 25.2567C3.28032 30.3467 8.05093 35.1999 16.0794 38.9458C19.1511 40.3792 22.6075 41.6055 26.38 42.6C18.1505 38.3073 13.1838 32.0665 12.6366 25.2567H2.61077ZM42.8579 13.5899L50.1306 31.0647L57.4045 13.5899H60.1439L56.3339 22.7421H71.5276C70.8556 11.3803 61.4393 2.51215 50.0006 2.51215C38.562 2.51215 29.1444 11.3816 28.4724 22.7421H43.9284L40.1184 13.5899H42.8579ZM97.3867 22.7421C96.7184 17.6533 91.9478 12.8001 83.9206 9.05293C80.8514 7.62078 77.395 6.39446 73.62 5.39878C81.847 9.69151 86.8137 15.9322 87.3634 22.7421H97.3867ZM84.8263 22.7421C84.0618 14.6228 75.856 7.46082 63.7215 4.25181C69.8912 8.48503 73.7524 15.3023 74.1446 22.7421H84.8263ZM25.8554 22.7421C26.2464 15.3023 30.1088 8.48503 36.2785 4.25181C24.144 7.46082 15.9382 14.6216 15.1712 22.7421H25.8554ZM12.6366 22.7421C13.1838 15.9335 18.1505 9.69275 26.38 5.40002C22.605 6.39446 19.1486 7.62202 16.0794 9.05417C8.05093 12.8013 3.28032 17.6545 2.61077 22.7433L12.6366 22.7421Z"
        fill="#F3F3F3"></path>
</svg>